<?xml version="1.0" encoding="utf-8"?>
<!-- Generator: Adobe Illustrator 27.5.0, SVG Export Plug-In . SVG Version: 6.00 Build 0)  -->
<svg version="1.1" id="Layer_1" xmlns="http://www.w3.org/2000/svg" xmlns:xlink="http://www.w3.org/1999/xlink" x="0px" y="0px"
	 viewBox="0 0 2428.295 2000" style="enable-background:new 0 0 2428.295 2000;" xml:space="preserve">
<g>
	<g>
		<g>
			<rect style="fill:#FFFFFF;" width="2428.295" height="2000"/>
		</g>
	</g>
	<g>
		<path style="fill:#355389;" d="M1007.407,240.887c0,0,484.013-67.113,548.16,257.622
			c33.945,171.845,283.637,47.666,426.123,107.306c101.44,42.46,49.023,186.289,109.965,223.8
			c300.307,184.847,222.169,993.27,163.858,993.15l-2002.572-3.3c0,0-161.963-242.376-15.344-383.91
			c146.62-141.533,45.949-206.25,28.13-260.952c-20.459-62.806-93.72-242.12,114.982-320.623
			c107.148-40.303,140.433-151.863,148.55-226.339c13.871-127.254,85.078-240.51,193.145-302.357
			C790.833,286.122,883.128,253.97,1007.407,240.887z"/>
		<g>
			<rect x="305.026" y="204.1" style="fill:#466EB6;" width="623.654" height="854.148"/>
			<rect x="341.414" y="240.855" style="fill:#001333;" width="550.658" height="779.739"/>
		</g>
		<rect x="824.234" y="1213.551" style="fill:#13375B;" width="19.266" height="604.771"/>
		<g>
			
				<rect x="453.673" y="1329.273" transform="matrix(-1 -1.224647e-16 1.224647e-16 -1 1228.7142 3147.1211)" style="fill:#4E7FC6;" width="321.368" height="488.574"/>
			
				<rect x="453.673" y="1461.902" transform="matrix(-1 -1.224647e-16 1.224647e-16 -1 1228.7142 2934.1377)" style="fill:#13375B;" width="321.368" height="10.333"/>
			
				<rect x="453.673" y="1639.875" transform="matrix(-1 -1.224647e-16 1.224647e-16 -1 1228.7142 3290.083)" style="fill:#13375B;" width="321.368" height="10.333"/>
			
				<rect x="340.877" y="1329.273" transform="matrix(-1 -1.224647e-16 1.224647e-16 -1 794.5503 3147.1211)" style="fill:#13375B;" width="112.796" height="488.574"/>
			<path style="fill:#1D2F49;" d="M347.007,1334.387H775.3c8.965,0,16.232-7.267,16.232-16.231v-1.77
				c0-8.965-7.267-16.232-16.232-16.232H347.007c-8.965,0-16.232,7.268-16.232,16.232v1.77
				C330.775,1327.12,338.042,1334.387,347.007,1334.387z"/>
		</g>
		<g>
			<path style="fill:#4E7FC6;" d="M2086.343,1716.646h3.731c1.229-12.559,3.646-26.434,7.946-40.949
				c16.265-54.895,9.149-61.997,36.597-96.313c27.446-34.315,29.479-105.475,29.479-105.475s13.216-80.817,0-116.396
				c-13.215-35.58-14.231-71.159-46.253-108.772c0,0-6.1,50.32-13.725,73.192c-7.623,22.873-14.863,44.729-9.211,99.623
				c5.654,54.895,9.165,59.469,10.459,73.701c1.294,14.231-0.739,74.223,2.311,84.127c3.05,9.905-17.789,78.522-19.314,108.003
				C2087.905,1696.246,2087.08,1706.345,2086.343,1716.646z"/>
			<path style="fill:#466EB6;" d="M2098.033,1716.646c5.295-12.217,14.617-24.356,30.939-31.643
				c42.695-19.061,71.498-18.637,91.32-64.383c19.823-45.745,19.823-108.264,26.686-121.225c0,0-18.299-3.05-36.597,29.734
				s-30.71,57.182-41.277,76.242s-25.815,13.724-38.776,28.209c-10.863,12.141-20.894,40.384-24.704,54.716
				c-1.237,4.655-3.037,9.14-5.412,13.331c-2.16,3.812-4.702,8.45-6.227,11.754c-0.339,0.735-0.676,1.855-1.007,3.264H2098.033z"/>
			<path style="fill:#4E7FC6;" d="M1977.558,1499.832c-3.05,39.138,21.856,36.088,22.873,60.994
				c1.017,24.905,33.546,67.093,48.617,97.081c7.838,15.598,10.732,39.443,11.706,58.739h12.108
				c-4.684-48.838-24.499-82.832-36.344-110.075c-15.249-35.071-17.536-51.082-4.574-78.529
				c12.961-27.447-6.1-98.353,12.352-129.964c18.452-31.61,8.995-81.227,4.752-100.287c-4.244-19.061,0.432-32.021,4.243-52.117
				c3.813-20.095-4.243-49.285-4.243-49.285c-0.687,24.906-19.646,58.961-33.369,80.816
				c-13.724,21.856-39.646,81.325-36.596,108.264c3.05,26.939,1.524,28.973,1.524,28.973
				C1970.95,1450.529,1980.607,1460.694,1977.558,1499.832z"/>
			<path style="fill:#466EB6;" d="M2050.209,1684.844c1.557,4.672,6.549,16.603,11.117,31.803h7.426
				c-3.378-19.35-9.209-41.805-19.052-54.676c-19.822-25.922-59.469-37.104-64.043-55.91c-4.575-18.807,0.508-75.226-28.464-106.739
				c0,0,4.066,35.085,0,44.481s-38.629,53.108-18.298,89.705c20.331,36.596,66.076,32.021,80.308,40.154
				C2033.436,1681.794,2047.667,1677.22,2050.209,1684.844z"/>
			<path style="fill:#466EB6;" d="M2031.911,1516.063c-0.509,37.612,28.972,51.845,28.463,72.685
				c-0.508,20.839,6.1,43.203,11.69,59.977c3.539,10.618,1.58,40.178,0.954,67.922h8.181c2.06-20.388,4.317-49.802,3.572-62.839
				c-1.017-17.79,7.116-32.022,8.133-63.027s7.624-58.96-6.1-98.098s-11.182-85.899-68.617-129.104c0,0-10.166,45.745-2.542,70.651
				C2023.27,1459.136,2032.419,1478.45,2031.911,1516.063z"/>
			<path style="fill:#13375B;" d="M2090.098,1684.55h-5.486h-73.239c-5.383,0-9.354,5.036-8.109,10.283l28.698,121.017
				c0.893,3.764,4.248,6.421,8.109,6.421h44.541h5.486h44.541c3.861,0,7.217-2.657,8.109-6.421l28.698-121.017
				c1.244-5.247-2.727-10.283-8.109-10.283H2090.098z"/>
		</g>
		<path style="fill:#001333;" d="M1536.461,1212.682H811.828c-8.484,0-15.362-7.455-15.362-16.65l0,0
			c0-9.196,6.878-16.651,15.362-16.651h724.633c8.484,0,15.362,7.455,15.362,16.651l0,0
			C1551.823,1205.227,1544.945,1212.682,1536.461,1212.682z"/>
		<g>
			<path style="fill:#13375B;" d="M1790.63,925.897c4.998-47.221-21.916-90.811-66.228-103.711
				c-2.381-26.343-15.67-51.665-35.833-67.824c-39.777-31.875-108.858-44.467-130.874,3.531
				c-33.168,23.036-56.54,68.017-42.17,105.383c-30.559,38.007-11.29,99.226,41.356,123.726
				c3.14,38.853,27.964,75.273,64.248,88.338c8.71,3.136,22.268,7.364,24.087,8.917c-2.368-1.786,33.108,71.238,115.95,27.784
				C1845.702,1067.699,1852.74,966.269,1790.63,925.897z"/>
			<path style="fill:#001333;" d="M1668.388,1773.996h-32.951c-9.749,0-17.652,7.903-17.652,17.652l0,0
				c0,9.749,7.903,17.652,17.652,17.652h32.95c9.75,0,17.652-7.903,17.652-17.652l0,0
				C1686.039,1781.899,1678.137,1773.996,1668.388,1773.996z"/>
			<path style="fill:#001333;" d="M1665.06,1798.318l-31.12-0.123c4.107-135.794,7.724-342.021,0.862-353.589
				c0.019,0.033,0.455,0.743,2.07,1.557l25.255-6.588c4.081,2.053,6.545,3.292,7.398,61.039
				c0.438,29.719,0.271,70.757-0.497,121.976C1667.721,1709.778,1665.086,1797.443,1665.06,1798.318z"/>
			<path style="fill:#13375B;" d="M1776.871,1791.668H1527.01c-11.509,0-20.838,10.044-20.838,22.434l0,0
				c0,2.166,1.631,3.923,3.644,3.923h284.249c2.013,0,3.645-1.757,3.645-3.923l0,0
				C1797.709,1801.712,1788.379,1791.668,1776.871,1791.668z"/>
			<path style="fill:#F48C7F;" d="M1334.078,1143.592l165.112-46.035c0,0,34.788-46.73,79.543-109.415
				c14.633,14.483,22.765,36.735,37.501,51.077l-109.297,120.893c-3.942,4.36-9.539,6.856-15.417,6.876l-151.731,0.505
				l-51.922,4.138v-33.23L1334.078,1143.592z"/>
			<path style="fill:#D3D9F4;" d="M1571.78,1108.544c0,0,56.667-58.104,71.25-83.349c14.582-25.244-9.931-8.81-34.969-15.452
				c-9.481-2.516-7.082-58.078-25.006-40.018c-29.407,29.631-66.377,81.444-66.377,81.444L1571.78,1108.544z"/>
			<path style="fill:#B9C5EF;" d="M1652.349,944.236c0,0,50.855-10.039,74.063,9.35c23.207,19.389-4.972,191.773-4.948,220.351
				c0.024,28.577,15.936,109.316,15.936,109.316s-154.138,26.979-178.622-15.92c0,0-6.966-163.443-5.929-183.996
				s23.89-104.61,30.208-113.611C1589.373,960.724,1652.349,944.236,1652.349,944.236z"/>
			<path style="fill:#F7A491;" d="M1652.668,865.57c0,0,0.268,1.52,0.748,4.108c2.307,12.413,11.189,53.589,17.189,64.909
				c7.252,13.68-24.825,57.311-55.699,51.986c-9.19-1.585,7.769-40.089,6.953-44.167c-1.56-7.808-3.676-18.459-5.84-29.38
				c-1.222-6.161-2.459-12.407-3.62-18.278c-3.302-16.683-5.996-30.329-5.996-30.329L1652.668,865.57z"/>
			<path style="fill:#F47458;" d="M1653.416,869.678c-0.48-2.587-0.748-4.108-0.748-4.108l-46.265-1.151
				c0,0,2.694,13.646,5.996,30.329c1.155,5.838,2.385,12.048,3.6,18.176c7.142-1.05,14.605-4.515,22.089-11.053
				c8.158-7.127,13.505-15.691,16.732-24.835C1654.249,874.118,1653.773,871.602,1653.416,869.678z"/>
			<g>
				<path style="fill:#F48C7F;" d="M1467.532,1676.631c0,0,46.787,56.1,47.096,60.98c0.31,4.882-1.858,58.156-7.423,63.038
					s-15.402,9.242-10.147,14.733c3.972,4.149,28.02,2.363,48.271,1.249c5.911-0.325,13.324-47.491,15.666-54.423
					c3.4-10.068,11.67-32.746,8.578-39.763c-1.507-3.42-8.713-10.447-18.867-17.006c-10.681-6.898-51.534-63.743-51.534-63.743
					L1467.532,1676.631z"/>
				<path style="fill:#B9C5EF;" d="M1550.044,1705.109c0,0-31.417,88.457-43.714,92.727c-3.265,1.134-5.225,4.01-8.181,10.939
					c-0.891,2.088,0,9.06,0,9.06h51.774c0,0,8.282-38.974,11.556-56.099c0,0,17.334-41.84,15.407-45.643
					C1574.961,1712.292,1550.044,1705.109,1550.044,1705.109z"/>
				<path style="fill:#F7A491;" d="M1187.288,1703.573c0,0-38.207,53.79-34.846,70.807c1.8,9.113,9.814,21.038,5.215,29.613
					s-9.854,10.72-9.854,10.72l-119.183,1.916c-6.492,0.104-2.202-4.065,3.033-7.906c8.568-6.287,15.482-10.443,42.852-23.656
					c1.784-0.861,8.283-4.986,10.627-6.415c5.943-3.621,11.911-9.321,17.048-15.03c8.558-9.508,46.188-86.99,46.188-86.99
					L1187.288,1703.573z"/>
				<path style="fill:#B9C5EF;" d="M1085.147,1778.642c31.521,8.071,54.82,2.584,67.854-2.66c3.362,9.507,7.817,21.434,5.454,28.312
					c-2.894,8.42-7.013,10.324-10.652,10.42c-28.791,0.754-105.461,1.781-127.414,2.066c-3.066,0.04-4.757-3.534-2.786-5.884
					C1023.047,1804.407,1082.799,1780.074,1085.147,1778.642z"/>
				<path style="fill:#A34A3B;" d="M1325.486,1371.733c0,0,47.311,53.998,59.377,62.551
					c12.065,8.552,127.867,221.793,127.867,221.793l-41.254,30.12c0,0-103.495-129.047-152.1-198.071
					c-41.097-58.362-25.959-54.661-50.127-90.188c-13.305-19.559-10.288-46.006,7.257-61.872c2.183-1.974,4.554-4.034,7.131-6.182
					c35.774-29.816,280.984-63.371,280.984-63.371l156.841,15.36c0,0-128.145,89.859-132.927,92.251
					c-4.782,2.391-176.961,27.5-180.548,27.5S1325.486,1371.733,1325.486,1371.733z"/>
				<path style="fill:#B75742;" d="M1737.398,1283.253c0,0,26.902,80.708-13.451,118.372
					c-40.354,37.664-280.088,33.479-359.003,33.479c0,0-32.284,88.479-35.871,102.828s-160.221,199.679-160.221,199.679
					l-43.044-27.501c0,0,168.59-327.616,181.744-341.964c13.152-14.349,200.874-71.741,247.505-84.894
					C1601.688,1270.101,1737.398,1283.253,1737.398,1283.253z"/>
			</g>
			<path style="fill:#F7A491;" d="M1425.461,1138.056l143.159-31.672c0,0,51.774-66.522,101.496-123.777
				c14.633,14.483,22.766,36.735,37.501,51.077l-109.297,120.893c-3.941,4.359-13.134,12.267-19.012,12.286h-148.685l-51.374-0.769
				v-33.23L1425.461,1138.056z"/>
			<path style="fill:#D3D9F4;" d="M1663.163,1103.009c0,0,56.668-58.104,71.25-83.35c14.582-25.244,3.767-67.537-21.272-74.179
				c-25.037-6.642-105.079,100.155-105.079,100.155L1663.163,1103.009z"/>
			<path style="fill:#001333;" d="M1508.33,1443.38l14.446-60.137c10.102-42.059,47.346-72.657,90.568-74.404l182.971-7.396
				l5.646-18.627l-189.359,7.653c-51.4,2.08-95.688,38.466-107.702,88.48l-15.351,63.901
				C1494.747,1443.072,1501.088,1443.246,1508.33,1443.38z"/>
			<path style="fill:#466EB6;" d="M1753.753,1411.35c0,0-251.382,4.303-277.59,0c-26.207-4.303-37.551,28.555-29.728,45.765
				c7.823,17.211,29.337,23.86,61.021,25.425c31.684,1.565,295.321,8.997,302.753,1.956c6.07-5.751,85.993-278.987,115.074-378.91
				c5.812-19.972-5.651-40.841-25.609-46.698l0,0c-19.865-5.83-40.717,5.439-46.724,25.252L1753.753,1411.35z"/>
			<path style="fill:#F7A491;" d="M1611.611,767.257c0,0,22.627-2.621,36.811,15.765c14.184,18.386,29.471,75.245-5.763,106.158
				s-70.047-4.079-75.209-41.179S1560.282,765.917,1611.611,767.257z"/>
			<path style="fill:#13375B;" d="M1609.08,761.178c0,0,30.229,54.07,51.855,56.568c21.626,2.498,24.465,31.229,24.465,31.229
				s-7.731-66.202-29.141-78.969C1634.851,757.238,1609.08,761.178,1609.08,761.178z"/>
			<path style="fill:#F7A491;" d="M1655.265,831.333c-1.759,9.602,1.778,18.408,7.901,19.668c6.121,1.26,12.51-5.503,14.269-15.104
				c1.759-9.602-1.778-18.408-7.9-19.667C1663.412,814.968,1657.023,821.731,1655.265,831.333z"/>
		</g>
		<g>
			<path style="fill:#B75742;" d="M1083.413,984.347h230.673c6.103,0,11.601,3.688,13.916,9.334l71.026,173.231h127.171
				c3.557,0,6.439,2.88,6.439,6.434l0,0c0,3.554-2.883,6.434-6.439,6.434h-361.94c-9.951,0-18.975-5.84-23.05-14.918
				l-71.518-159.313C1065.224,995.596,1072.504,984.347,1083.413,984.347z"/>
			<path style="fill:#FFFFFF;" d="M1207.607,1085.22c1.558,7.781,8.345,12.984,15.16,11.622s11.075-8.774,9.517-16.556
				c-1.558-7.781-8.345-12.984-15.159-11.622C1210.31,1070.027,1206.049,1077.439,1207.607,1085.22z"/>
		</g>
		
			<rect x="833.867" y="1429.454" transform="matrix(-1 -1.224647e-16 1.224647e-16 -1 2339.2642 2879.3887)" style="fill:#13375B;" width="671.531" height="20.48"/>
		<rect x="1495.323" y="1213.551" style="fill:#13375B;" width="19.266" height="604.771"/>
		<rect x="237.979" y="1817.848" style="fill:#001333;" width="2034.14" height="9.135"/>
		<path style="fill:#D3D9F4;" d="M1055.22,822.04c0,12.813-10.387,23.199-23.199,23.199s-23.199-10.386-23.199-23.199
			s10.387-23.199,23.199-23.199S1055.22,809.227,1055.22,822.04z"/>
		<g>
			<path style="fill:#B75742;" d="M378.859,1263.047h-6.258c1.023-0.773,2.305-1.237,3.698-1.237h156.767
				c8.202,0,14.851,6.519,14.851,14.559v9.248c0,8.041-6.649,14.559-14.851,14.559l-155.013-0.051L378.859,1263.047z"/>
			<path style="fill:#0E283D;" d="M467.858,1261.844c7.844,0,14.202,6.233,14.202,13.923v10.451c0,7.689-6.358,13.923-14.202,13.923
				h-97.591v-2.338h0.403l24.81-2.303l5.015-19.286c0,0-9.679-10.657-10.31-10.933c-0.631-0.274-19.515-1.108-19.515-1.108
				l-0.403-0.004v-2.325H467.858z"/>
			<path style="fill:#CED3F1;" d="M376.597,1280.924c0-11.276-5.944-16.742-5.944-16.742h95.207c7.205,0,13.045,5.726,13.045,12.789
				v8.044c0,7.063-5.84,12.788-13.045,12.788h-95.207C370.653,1297.803,376.597,1295.121,376.597,1280.924z"/>
			<path style="fill:#DAEEF7;" d="M478.905,1276.971v8.044c0,1.058-0.133,2.084-0.38,3.067c-3.211-7.702-9.365-15.121-21.081-17.506
				c-27.353-5.569-86.791-6.395-86.791-6.395h95.207C473.064,1264.182,478.905,1269.907,478.905,1276.971z"/>
			<path style="fill:#4E7FC6;" d="M368.516,1232.35h-6.26c1.024-0.614,2.306-0.982,3.7-0.982h156.828
				c8.205,0,14.856,5.172,14.856,11.553v7.338c0,6.38-6.651,11.552-14.856,11.552l-155.074-0.041L368.516,1232.35z"/>
			<path style="fill:#1D2F49;" d="M457.551,1231.395c7.847,0,14.208,4.946,14.208,11.048v8.292c0,6.102-6.361,11.048-14.208,11.048
				h-97.629v-1.854h0.403l24.82-1.828l5.017-15.303c0,0-9.682-8.456-10.314-8.675c-0.631-0.218-19.523-0.88-19.523-0.88
				l-0.403-0.003v-1.845H457.551z"/>
			<path style="fill:#CED3F1;" d="M366.253,1246.534c0-8.947-5.946-13.284-5.946-13.284h95.244c7.207,0,13.05,4.543,13.05,10.147
				v6.383c0,5.604-5.843,10.147-13.05,10.147h-95.244C360.308,1259.928,366.253,1257.8,366.253,1246.534z"/>
			<path style="fill:#DAEEF7;" d="M468.602,1243.397v6.383c0,0.839-0.134,1.653-0.38,2.434c-3.212-6.111-9.369-11.998-21.089-13.891
				c-27.363-4.419-86.824-5.073-86.824-5.073h95.244C462.759,1233.25,468.602,1237.793,468.602,1243.397z"/>
		</g>
		<g>
			<path style="fill:#13375B;" d="M562.869,1300.126h137.048c5.768,0,10.445-4.677,10.445-10.445v-62.774
				c0-5.769-4.677-10.445-10.445-10.445H562.869c-5.768,0-10.445,4.677-10.445,10.445v62.774
				C552.424,1295.449,557.101,1300.126,562.869,1300.126z"/>
			<path style="fill:#4E7FC6;" d="M578.722,1300.126h137.048c5.769,0,10.445-4.677,10.445-10.445v-62.774
				c0-5.769-4.677-10.445-10.445-10.445H578.722c-5.769,0-10.445,4.677-10.445,10.445v62.774
				C568.276,1295.449,572.953,1300.126,578.722,1300.126z"/>
			<path style="opacity:0.5;fill:#4E7FC6;" d="M588.376,1270.801h120.608c2.714,0,4.914-2.2,4.914-4.915v-29.536
				c0-2.714-2.2-4.914-4.914-4.914H588.376c-2.714,0-4.915,2.2-4.915,4.914v29.536
				C583.462,1268.601,585.662,1270.801,588.376,1270.801z"/>
			<path style="fill:#F47458;" d="M611.635,1264.571c-1.324,0-2.455-0.469-3.391-1.405c-0.937-0.937-1.405-2.066-1.405-3.392
				v-16.434h0.067c0-1.324,0.466-2.455,1.398-3.392c0.923-0.923,2.033-1.391,3.331-1.404h2.736c0.566,0,1.05,0.201,1.452,0.602
				c0.405,0.402,0.608,0.886,0.608,1.451c0,0.567-0.203,1.051-0.608,1.452c-0.401,0.401-0.886,0.602-1.452,0.602h-2.669
				c-0.188,0-0.348,0.069-0.481,0.208c-0.134,0.129-0.201,0.29-0.201,0.481h-0.073v16.434c0,0.192,0.068,0.353,0.207,0.481
				c0.129,0.139,0.29,0.208,0.482,0.208h5.478c0.188,0,0.348-0.069,0.481-0.208c0.134-0.129,0.201-0.289,0.201-0.481v-16.434
				c0-0.094-0.018-0.183-0.054-0.268c-0.106-0.259-0.16-0.52-0.16-0.782c0-0.264,0.054-0.526,0.16-0.789
				c0.219-0.527,0.589-0.896,1.111-1.11c0.263-0.107,0.526-0.161,0.789-0.161c0.263,0,0.526,0.054,0.79,0.161
				c0.521,0.218,0.894,0.588,1.117,1.11c0.116,0.289,0.205,0.586,0.268,0.89c0.063,0.312,0.094,0.628,0.094,0.949v16.434
				c0,1.325-0.468,2.455-1.405,3.392c-0.941,0.937-2.071,1.405-3.391,1.405H611.635z M617.113,1263.199
				c0.945,0,1.752-0.334,2.421-1.003c0.669-0.669,1.003-1.477,1.003-2.422v-16.434c0-0.231-0.023-0.459-0.067-0.682
				c-0.045-0.215-0.109-0.424-0.194-0.63c-0.071-0.173-0.194-0.298-0.368-0.374c-0.089-0.036-0.176-0.054-0.261-0.054
				c-0.085,0-0.172,0.018-0.261,0.054c-0.174,0.076-0.299,0.201-0.375,0.374c-0.036,0.085-0.054,0.172-0.054,0.262
				c0,0.085,0.018,0.172,0.054,0.261c0.053,0.125,0.091,0.252,0.113,0.381c0.027,0.134,0.04,0.27,0.04,0.408v16.434
				c0,0.566-0.2,1.051-0.602,1.452c-0.401,0.401-0.885,0.602-1.452,0.602h-5.478c-0.566,0-1.05-0.2-1.452-0.602
				c-0.401-0.401-0.602-0.886-0.602-1.452v-16.434h0.067c0-0.566,0.198-1.05,0.595-1.451c0.388-0.388,0.852-0.589,1.391-0.603
				v-0.006h2.736c0.191,0,0.352-0.067,0.482-0.201c0.138-0.13,0.207-0.29,0.207-0.482c0-0.187-0.069-0.347-0.207-0.48
				c-0.129-0.134-0.29-0.201-0.482-0.201h-2.669c-0.95,0-1.759,0.335-2.428,1.003c-0.664,0.67-0.996,1.477-0.996,2.422h-0.067
				v16.434c0,0.945,0.335,1.753,1.003,2.422c0.669,0.669,1.476,1.003,2.421,1.003H617.113z"/>
			<path style="fill:#F47458;" d="M639.032,1264.571c-0.566,0-1.052-0.201-1.458-0.603c-0.401-0.401-0.602-0.885-0.602-1.451v-8.221
				c0-0.188-0.067-0.348-0.201-0.481s-0.294-0.201-0.481-0.201h-5.479c-1.324,0-2.455-0.468-3.391-1.404
				c-0.936-0.94-1.404-2.071-1.404-3.391v-8.222c0-0.565,0.201-1.049,0.602-1.451c0.401-0.4,0.885-0.602,1.451-0.602
				c0.566,0,1.05,0.201,1.452,0.602c0.401,0.402,0.602,0.886,0.602,1.451v8.222c0,0.187,0.069,0.347,0.207,0.481
				c0.129,0.133,0.29,0.2,0.481,0.2h5.479c1.32,0,2.45,0.468,3.391,1.405c0.937,0.94,1.405,2.07,1.405,3.391v8.221
				c0,0.566-0.201,1.05-0.602,1.451C640.077,1264.37,639.594,1264.571,639.032,1264.571z M639.032,1263.199
				c0.188,0,0.348-0.066,0.482-0.2s0.2-0.295,0.2-0.481v-8.221c0-0.945-0.334-1.753-1.003-2.421
				c-0.669-0.669-1.476-1.004-2.421-1.004h-5.479c-0.566,0-1.05-0.2-1.451-0.602c-0.401-0.401-0.602-0.886-0.602-1.451v-8.222
				c0-0.187-0.069-0.347-0.207-0.48c-0.129-0.134-0.29-0.201-0.482-0.201c-0.187,0-0.348,0.067-0.481,0.201s-0.201,0.294-0.201,0.48
				v8.222c0,0.944,0.335,1.752,1.003,2.421c0.669,0.669,1.476,1.004,2.421,1.004h5.479c0.566,0,1.05,0.2,1.451,0.602
				c0.401,0.401,0.602,0.885,0.602,1.451v8.221c0,0.187,0.067,0.348,0.201,0.481C638.677,1263.133,638.84,1263.199,639.032,1263.199
				z M641.085,1250.424c-0.397-0.49-0.854-0.907-1.372-1.25v-8.576c0-0.187-0.066-0.347-0.2-0.48s-0.294-0.201-0.482-0.201
				c-0.192,0-0.354,0.067-0.488,0.201c-0.134,0.134-0.201,0.294-0.201,0.48v8.222h-1.371v-8.222c0-0.565,0.201-1.049,0.602-1.451
				c0.406-0.4,0.892-0.602,1.458-0.602c0.562,0,1.045,0.201,1.452,0.602c0.401,0.402,0.602,0.886,0.602,1.451V1250.424z"/>
			<path style="fill:#F47458;" d="M647.245,1248.13c-0.566,0-1.05-0.2-1.451-0.603c-0.401-0.4-0.602-0.885-0.602-1.451
				s0.201-1.05,0.602-1.451c0.401-0.401,0.885-0.603,1.451-0.603c0.566,0,1.05,0.201,1.452,0.603
				c0.401,0.401,0.602,0.885,0.602,1.451s-0.201,1.051-0.602,1.451C648.295,1247.93,647.811,1248.13,647.245,1248.13z
				 M647.245,1259.093c-0.566,0-1.05-0.2-1.451-0.603c-0.401-0.4-0.602-0.885-0.602-1.451s0.201-1.05,0.602-1.451
				c0.401-0.406,0.885-0.608,1.451-0.608c0.566,0,1.05,0.202,1.452,0.608c0.401,0.401,0.602,0.885,0.602,1.451
				s-0.201,1.051-0.602,1.451C648.295,1258.893,647.811,1259.093,647.245,1259.093z M647.245,1246.766
				c0.191,0,0.353-0.069,0.482-0.208c0.138-0.129,0.207-0.289,0.207-0.481c0-0.178-0.08-0.339-0.241-0.481
				c-0.143-0.134-0.292-0.2-0.448-0.2c-0.187,0-0.348,0.066-0.481,0.2s-0.201,0.295-0.201,0.481c0,0.192,0.067,0.353,0.201,0.481
				C646.897,1246.696,647.058,1246.766,647.245,1246.766z M647.245,1257.722c0.191,0,0.353-0.067,0.482-0.201
				c0.138-0.134,0.207-0.294,0.207-0.481c0-0.178-0.08-0.339-0.241-0.481c-0.143-0.139-0.292-0.208-0.448-0.208
				c-0.187,0-0.348,0.069-0.481,0.208c-0.134,0.129-0.201,0.29-0.201,0.481c0,0.188,0.067,0.348,0.201,0.481
				S647.058,1257.722,647.245,1257.722z"/>
			<path style="fill:#F47458;" d="M664.729,1264.785c-0.263,0-0.526-0.054-0.789-0.161c-0.085-0.035-0.172-0.053-0.261-0.053h-5.479
				c-1.324,0-2.455-0.469-3.391-1.405c-0.937-0.937-1.404-2.066-1.404-3.392v-5.478c0-1.32,0.468-2.45,1.404-3.391
				c0.937-0.938,2.067-1.405,3.391-1.405h5.479c0.187,0,0.348-0.067,0.481-0.2c0.134-0.135,0.201-0.295,0.201-0.481v-5.479h-0.067
				c0-0.191-0.069-0.353-0.207-0.481c-0.129-0.139-0.289-0.208-0.481-0.208h-8.147c-0.566,0-1.05-0.2-1.452-0.602
				c-0.401-0.401-0.602-0.885-0.602-1.452c0-0.565,0.201-1.049,0.602-1.451c0.401-0.4,0.885-0.602,1.452-0.602h8.221
				c1.293,0.014,2.401,0.481,3.324,1.404c0.936,0.937,1.404,2.067,1.404,3.392h0.067v5.479c0,1.319-0.469,2.45-1.405,3.391
				c-0.94,0.937-2.071,1.404-3.391,1.404h-5.479c-0.191,0-0.352,0.067-0.482,0.201c-0.138,0.134-0.207,0.294-0.207,0.481v5.478
				c0,0.192,0.069,0.353,0.207,0.481c0.129,0.139,0.29,0.208,0.482,0.208h5.479c0.321,0,0.637,0.031,0.95,0.094
				c0.303,0.063,0.597,0.151,0.883,0.268c0.521,0.218,0.894,0.589,1.117,1.11c0.107,0.263,0.16,0.526,0.16,0.789
				s-0.053,0.526-0.16,0.789c-0.219,0.522-0.591,0.893-1.117,1.11C665.249,1264.731,664.988,1264.785,664.729,1264.785z
				 M664.729,1263.407c0.085,0,0.171-0.019,0.261-0.054c0.174-0.071,0.297-0.194,0.368-0.368c0.036-0.089,0.054-0.178,0.054-0.268
				c0-0.085-0.018-0.169-0.054-0.254c-0.071-0.178-0.194-0.303-0.368-0.375c-0.205-0.084-0.417-0.149-0.635-0.193
				c-0.218-0.045-0.444-0.067-0.675-0.067h-5.479c-0.566,0-1.05-0.2-1.451-0.602c-0.401-0.401-0.602-0.886-0.602-1.452v-5.478
				c0-0.566,0.201-1.05,0.602-1.451c0.401-0.401,0.885-0.602,1.451-0.602h5.479c0.945,0,1.752-0.335,2.421-1.004
				c0.668-0.669,1.003-1.477,1.003-2.421v-5.479h-0.067c0-0.945-0.335-1.752-1.003-2.422c-0.669-0.668-1.476-1.003-2.421-1.003
				h-8.153c-0.187,0-0.348,0.067-0.482,0.201c-0.134,0.134-0.201,0.294-0.201,0.48c0,0.192,0.067,0.353,0.201,0.482
				c0.134,0.134,0.294,0.201,0.482,0.201h8.221v0.006c0.539,0.014,1.001,0.215,1.384,0.603c0.397,0.401,0.595,0.885,0.595,1.451
				h0.074v5.479c0,0.565-0.201,1.05-0.602,1.451c-0.401,0.401-0.885,0.602-1.451,0.602h-5.479c-0.945,0-1.752,0.335-2.421,1.004
				c-0.669,0.668-1.003,1.476-1.003,2.421v5.478c0,0.945,0.334,1.753,1.003,2.422c0.669,0.669,1.476,1.003,2.421,1.003h5.479
				c0.134,0,0.269,0.014,0.408,0.04c0.129,0.027,0.256,0.065,0.381,0.114C664.558,1263.389,664.645,1263.407,664.729,1263.407z"/>
			<path style="fill:#F47458;" d="M685.599,1264.571c-0.566,0-1.053-0.201-1.458-0.603c-0.401-0.401-0.602-0.885-0.602-1.451
				v-19.177h-0.067c0-0.191-0.069-0.353-0.207-0.481c-0.129-0.139-0.29-0.208-0.482-0.208h-8.147c-0.566,0-1.05-0.2-1.452-0.602
				c-0.401-0.401-0.602-0.885-0.602-1.452c0-0.565,0.201-1.049,0.602-1.451c0.401-0.4,0.885-0.602,1.452-0.602h8.22
				c1.293,0.014,2.401,0.481,3.324,1.404c0.937,0.937,1.405,2.067,1.405,3.392h0.067v19.177c0,0.566-0.201,1.05-0.602,1.451
				C686.644,1264.37,686.16,1264.571,685.599,1264.571z M685.599,1263.199c0.187,0,0.348-0.066,0.482-0.2s0.201-0.295,0.201-0.481
				v-19.177h-0.067c0-0.945-0.334-1.752-1.003-2.422c-0.669-0.668-1.476-1.003-2.421-1.003h-8.153c-0.188,0-0.348,0.067-0.481,0.201
				s-0.201,0.294-0.201,0.48c0,0.192,0.067,0.353,0.201,0.482c0.134,0.134,0.294,0.201,0.481,0.201h8.22v0.006
				c0.539,0.014,1.001,0.215,1.384,0.603c0.398,0.401,0.596,0.885,0.596,1.451h0.073v19.177c0,0.187,0.067,0.348,0.201,0.481
				C685.244,1263.133,685.407,1263.199,685.599,1263.199z"/>
			<path style="fill:#CED3F1;" d="M603.082,1283.1h-4.666c-0.429,0-0.776-0.348-0.776-0.776v-4.666c0-0.429,0.348-0.776,0.776-0.776
				h4.666c0.429,0,0.776,0.348,0.776,0.776v4.666C603.858,1282.752,603.511,1283.1,603.082,1283.1z"/>
			<path style="fill:#CED3F1;" d="M619.816,1283.1h-4.667c-0.429,0-0.776-0.348-0.776-0.776v-4.666c0-0.429,0.348-0.776,0.776-0.776
				h4.667c0.429,0,0.776,0.348,0.776,0.776v4.666C620.593,1282.752,620.245,1283.1,619.816,1283.1z"/>
			<path style="fill:#CED3F1;" d="M636.55,1283.1h-4.666c-0.429,0-0.776-0.348-0.776-0.776v-4.666c0-0.429,0.348-0.776,0.776-0.776
				h4.666c0.429,0,0.776,0.348,0.776,0.776v4.666C637.327,1282.752,636.979,1283.1,636.55,1283.1z"/>
			<path style="fill:#CED3F1;" d="M653.284,1283.1h-4.666c-0.429,0-0.776-0.348-0.776-0.776v-4.666c0-0.429,0.348-0.776,0.776-0.776
				h4.666c0.429,0,0.776,0.348,0.776,0.776v4.666C654.06,1282.752,653.713,1283.1,653.284,1283.1z"/>
			<path style="fill:#CED3F1;" d="M670.019,1283.1h-4.666c-0.429,0-0.777-0.348-0.777-0.776v-4.666c0-0.429,0.348-0.776,0.777-0.776
				h4.666c0.429,0,0.776,0.348,0.776,0.776v4.666C670.795,1282.752,670.447,1283.1,670.019,1283.1z"/>
		</g>
		<rect x="341.414" y="240.855" style="fill:#13375B;" width="9.953" height="779.739"/>
		
			<rect x="611.766" y="740.288" transform="matrix(-1.836970e-16 1 -1 -1.836970e-16 1632.3601 398.8743)" style="fill:#13375B;" width="9.953" height="550.658"/>
		<g>
			<rect x="983.17" y="403.747" style="fill:#466EB6;" width="170.794" height="232.342"/>
			<rect x="1008.44" y="432.972" style="fill:#13375B;" width="120.255" height="173.892"/>
		</g>
		<g>
			<rect x="1209.832" y="570.642" style="fill:#466EB6;" width="270.541" height="232.342"/>
			<rect x="1236.344" y="599.867" style="fill:#13375B;" width="217.518" height="173.892"/>
		</g>
		<defs>
			<filter id="Adobe_OpacityMaskFilter" filterUnits="userSpaceOnUse" x="984.454" y="767.127" width="548.458" height="412.389">
				<feFlood  style="flood-color:white;flood-opacity:1" result="back"/>
				<feBlend  in="SourceGraphic" in2="back" mode="normal"/>
			</filter>
		</defs>
		<mask maskUnits="userSpaceOnUse" x="984.454" y="767.127" width="548.458" height="412.389" id="SVGID_1_">
			<g style="filter:url(#Adobe_OpacityMaskFilter);">
				<defs>
					
						<filter id="Adobe_OpacityMaskFilter_00000110458347207245722250000012240162210267572113_" filterUnits="userSpaceOnUse" x="984.454" y="767.127" width="548.458" height="412.389">
						<feFlood  style="flood-color:white;flood-opacity:1" result="back"/>
						<feBlend  in="SourceGraphic" in2="back" mode="normal"/>
					</filter>
				</defs>
				<mask maskUnits="userSpaceOnUse" x="984.454" y="767.127" width="548.458" height="412.389" id="SVGID_1_">
					<g style="filter:url(#Adobe_OpacityMaskFilter_00000110458347207245722250000012240162210267572113_);">
					</g>
				</mask>
				
					<linearGradient id="SVGID_00000037659762503738336710000014944142616828583310_" gradientUnits="userSpaceOnUse" x1="984.4536" y1="973.322" x2="1532.9111" y2="973.322">
					<stop  offset="0" style="stop-color:#FFFFFF"/>
					<stop  offset="0.063" style="stop-color:#DADADA"/>
					<stop  offset="0.1602" style="stop-color:#A7A7A7"/>
					<stop  offset="0.2621" style="stop-color:#7B7B7B"/>
					<stop  offset="0.3668" style="stop-color:#555555"/>
					<stop  offset="0.4749" style="stop-color:#363636"/>
					<stop  offset="0.5877" style="stop-color:#1E1E1E"/>
					<stop  offset="0.7071" style="stop-color:#0D0D0D"/>
					<stop  offset="0.8375" style="stop-color:#030303"/>
					<stop  offset="1" style="stop-color:#000000"/>
				</linearGradient>
				<polygon style="mask:url(#SVGID_1_);fill:url(#SVGID_00000037659762503738336710000014944142616828583310_);" points="
					984.454,867.164 1083.34,1179.015 1532.911,1179.517 1062.693,767.127 				"/>
			</g>
		</mask>
		
			<linearGradient id="SVGID_00000058573377581486125600000000185778858464798617_" gradientUnits="userSpaceOnUse" x1="984.4536" y1="973.322" x2="1532.9111" y2="973.322">
			<stop  offset="0" style="stop-color:#FFFFFF"/>
			<stop  offset="0.063" style="stop-color:#DADADA"/>
			<stop  offset="0.1602" style="stop-color:#A7A7A7"/>
			<stop  offset="0.2621" style="stop-color:#7B7B7B"/>
			<stop  offset="0.3668" style="stop-color:#555555"/>
			<stop  offset="0.4749" style="stop-color:#363636"/>
			<stop  offset="0.5877" style="stop-color:#1E1E1E"/>
			<stop  offset="0.7071" style="stop-color:#0D0D0D"/>
			<stop  offset="0.8375" style="stop-color:#030303"/>
			<stop  offset="1" style="stop-color:#000000"/>
		</linearGradient>
		<polygon style="opacity:0.5;fill:url(#SVGID_00000058573377581486125600000000185778858464798617_);" points="984.454,867.164 
			1083.34,1179.015 1532.911,1179.517 1062.693,767.127 		"/>
		<g>
			<path style="fill:#B75742;" d="M979.715,1164.041h8.221c0.489,0,0.885-0.396,0.885-0.885v-30.299
				c0-0.489-0.397-0.886-0.885-0.886h-8.221c-0.489,0-0.886,0.396-0.886,0.886v30.299
				C978.829,1163.645,979.226,1164.041,979.715,1164.041z"/>
			<g>
				<path style="fill:#1D2F49;" d="M889.838,778.95c6.024-12.377,14.011-20.155,23.741-23.117
					c15.007-4.57,29.353,3.623,29.496,3.706l4.714-8.105c-0.729-0.424-18.065-10.316-36.941-4.571
					c-12.325,3.752-22.229,13.168-29.44,27.983L889.838,778.95z"/>
			</g>
			<path style="fill:#B75742;" d="M952.989,740.008l53.497,35.532c1.436,0.955,1.828,2.892,0.873,4.329l-16.037,24.146
				c-0.954,1.437-2.892,1.827-4.329,0.873l-53.497-35.532c-1.437-0.954-1.828-2.892-0.874-4.328l16.037-24.146
				C949.614,739.445,951.552,739.054,952.989,740.008z"/>
			<path style="fill:#466EB6;" d="M1055.772,759.789l-71.318,107.375c-29.651-19.694-37.723-59.696-18.029-89.347
				C986.119,748.166,1026.121,740.094,1055.772,759.789z"/>
			<g>
				<path style="fill:#B75742;" d="M817.556,970.685l52.769-200.595l30.736,8.086l-52.769,200.594L817.556,970.685z
					 M877.298,782.041l-47.792,181.671l11.813,3.107l47.791-181.671L877.298,782.041z"/>
			</g>
			<g>
				<path style="fill:#B75742;" d="M816.253,980.171l30.075-10.27l67.027,196.291l-30.076,10.27L816.253,980.171z M840.231,982.32
					l-11.559,3.947l60.703,177.773l11.559-3.946L840.231,982.32z"/>
			</g>
			<path style="fill:#1D2F49;" d="M980.594,874.548l6.734,4.473c0.401,0.266,0.941,0.157,1.208-0.244l79.523-119.729
				c0.267-0.401,0.157-0.942-0.243-1.208l-6.734-4.473c-0.4-0.266-0.941-0.157-1.208,0.244l-79.524,119.729
				C980.084,873.742,980.194,874.282,980.594,874.548z"/>
			<path style="fill:#F47458;" d="M812.049,978.628c0,12.797,10.375,23.172,23.172,23.172c12.798,0,23.173-10.375,23.173-23.172
				c0-12.798-10.375-23.173-23.173-23.173C822.424,955.455,812.049,965.83,812.049,978.628z"/>
			<path style="fill:#466EB6;" d="M1047.972,1147.271H843.714c-3.108,0-5.627,2.519-5.627,5.627v26.117h215.512v-26.117
				C1053.599,1149.789,1051.08,1147.271,1047.972,1147.271z"/>
		</g>
		<rect x="305.026" y="519.918" style="fill:#466EB6;" width="609.573" height="21.594"/>
		<g style="opacity:0.2;">
			<circle style="fill:#D3D9F4;" cx="748.711" cy="359.463" r="68.846"/>
		</g>
		<g style="opacity:0.2;">
			<path style="fill:#D3D9F4;" d="M786.73,302.072c7.232,10.896,11.455,23.962,11.455,38.02c0,38.022-30.823,68.845-68.846,68.845
				c-14.057,0-27.124-4.222-38.019-11.455c12.33,18.575,33.426,30.826,57.391,30.826c38.022,0,68.845-30.823,68.845-68.845
				C817.556,335.498,805.305,314.402,786.73,302.072z"/>
		</g>
		<g>
			<path style="fill:#FFFFFF;" d="M429.547,886.54c8.821,0,8.835-13.708,0-13.708C420.727,872.831,420.712,886.54,429.547,886.54
				L429.547,886.54z"/>
		</g>
		<g>
			<path style="fill:#FFFFFF;" d="M579.99,740.315c8.82,0,8.835-13.709,0-13.709C571.169,726.607,571.155,740.315,579.99,740.315
				L579.99,740.315z"/>
		</g>
		<g>
			<path style="fill:#FFFFFF;" d="M814.793,648.925c8.821,0,8.835-13.708,0-13.708C805.972,635.216,805.957,648.925,814.793,648.925
				L814.793,648.925z"/>
		</g>
		<g>
			<path style="fill:#FFFFFF;" d="M437.983,345.228c8.821,0,8.835-13.708,0-13.708C429.163,331.519,429.148,345.228,437.983,345.228
				L437.983,345.228z"/>
		</g>
		<g>
			<path style="fill:#FFFFFF;" d="M585.614,461.926c8.82,0,8.835-13.709,0-13.709C576.793,448.217,576.778,461.926,585.614,461.926
				L585.614,461.926z"/>
		</g>
		<g>
			<path style="fill:#FFFFFF;" d="M761.365,911.848c8.821,0,8.836-13.708,0-13.708C752.544,898.14,752.529,911.848,761.365,911.848
				L761.365,911.848z"/>
		</g>
		<g>
			<path style="fill:#FFFFFF;" d="M414.081,657.361c8.821,0,8.835-13.708,0-13.708C405.261,643.652,405.246,657.361,414.081,657.361
				L414.081,657.361z"/>
		</g>
		<g>
			<path style="fill:#FFFFFF;" d="M481.569,739.437c4.071,0,4.078-6.327,0-6.327C477.498,733.109,477.492,739.437,481.569,739.437
				L481.569,739.437z"/>
		</g>
		<g>
			<path style="fill:#FFFFFF;" d="M594.05,649.452c4.071,0,4.078-6.327,0-6.327C589.979,643.125,589.972,649.452,594.05,649.452
				L594.05,649.452z"/>
		</g>
		<g>
			<path style="fill:#FFFFFF;" d="M724.809,756.309c4.071,0,4.078-6.327,0-6.327C720.737,749.981,720.731,756.309,724.809,756.309
				L724.809,756.309z"/>
		</g>
		<g>
			<path style="fill:#FFFFFF;" d="M612.328,943.308c4.071,0,4.078-6.327,0-6.327C608.257,936.981,608.25,943.308,612.328,943.308
				L612.328,943.308z"/>
		</g>
		<g>
			<path style="fill:#FFFFFF;" d="M437.983,965.804c4.071,0,4.078-6.327,0-6.327C433.912,959.477,433.905,965.804,437.983,965.804
				L437.983,965.804z"/>
		</g>
		<g>
			<path style="fill:#FFFFFF;" d="M477.352,459.641c4.071,0,4.078-6.327,0-6.327C473.28,453.315,473.273,459.641,477.352,459.641
				L477.352,459.641z"/>
		</g>
		<g>
			<path style="fill:#FFFFFF;" d="M595.456,295.139c4.071,0,4.078-6.327,0-6.327C591.385,288.811,591.378,295.139,595.456,295.139
				L595.456,295.139z"/>
		</g>
		<g>
			<path style="fill:#FFFFFF;" d="M848.537,466.671c4.071,0,4.078-6.327,0-6.327C844.466,460.344,844.459,466.671,848.537,466.671
				L848.537,466.671z"/>
		</g>
		<g>
			<path style="fill:#FFFFFF;" d="M691.064,480.731c4.071,0,4.078-6.327,0-6.327C686.993,474.404,686.986,480.731,691.064,480.731
				L691.064,480.731z"/>
		</g>
		<g>
			<path style="fill:#FFFFFF;" d="M720.591,678.979c4.071,0,4.078-6.327,0-6.327C716.519,672.651,716.513,678.979,720.591,678.979
				L720.591,678.979z"/>
		</g>
		<g>
			<path style="fill:#FFFFFF;" d="M620.764,843.129c5.428,0,5.437-8.436,0-8.436C615.336,834.693,615.327,843.129,620.764,843.129
				L620.764,843.129z"/>
		</g>
		<g>
			<path style="fill:#FFFFFF;" d="M807.763,817.646c3.393,0,3.398-5.273,0-5.273C804.37,812.373,804.365,817.646,807.763,817.646
				L807.763,817.646z"/>
		</g>
	</g>
</g>
</svg>
